PathFileType	4	(X/Y/Z)	Patient4_TMGait_0pt4_03_right_41.trc.trc
DataRate	CameraRate	NumFrames	NumMarkers	Units	OrigDataRate	OrigDataStartFrame	OrigNumFrames
75.268817204301	75.268817204301	4	33	mm	75.268817204301	53	       141
Frame#	Time	Sacral			L.Shoulder			Chest			R.Shoulder			Neck			R.ASIS			L.ASIS			R.Thigh.Superior			R.Thigh.Lateral			R.Thigh.Inferior			R.Patella			L.Thigh.Superior			L.Thigh.Lateral			L.Thigh.Inferior			L.Patella			L.Shank.Superior			L.Shank.Lateral			L.Shank.Inferior			R.Shank.Superior			R.Shank.Lateral			R.Shank.Inferior			R.Heel			R.Midfoot.Superior			R.Midfoot.Lateral			R.Toe			L.Heel			L.Midfoot.Lateral			L.Midfoot.Superior			L.Toe			L.Elbow			L.Wrist			R.Elbow			R.Wrist			
		X1	Y1	Z1	X2	Y2	Z2	X3	Y3	Z3	X4	Y4	Z4	X5	Y5	Z5	X6	Y6	Z6	X7	Y7	Z7	X8	Y8	Z8	X9	Y9	Z9	X10	Y10	Z10	X11	Y11	Z11	X12	Y12	Z12	X13	Y13	Z13	X14	Y14	Z14	X15	Y15	Z15	X16	Y16	Z16	X17	Y17	Z17	X18	Y18	Z18	X19	Y19	Z19	X20	Y20	Z20	X21	Y21	Z21	X22	Y22	Z22	X23	Y23	Z23	X24	Y24	Z24	X25	Y25	Z25	X26	Y26	Z26	X27	Y27	Z27	X28	Y28	Z28	X29	Y29	Z29	X30	Y30	Z30	X31	Y31	Z31	X32	Y32	Z32	X33	Y33	Z33	

53	54.350857142857	962.258620269450	1007.213295929229	536.260502783074	1132.167923295211	1425.800155749135	329.932417512911	1245.154730014732	1364.400446852237	486.800055031695	1174.253887056083	1443.814979418652	663.767246743120	1128.140720517518	1495.633278378258	485.021225608267	1197.764393184985	943.168677169331	639.856878941511	1166.562886595586	961.037968926601	367.494617578642	1227.858926267170	737.783647343965	610.298471626561	1140.702299087798	631.862163132350	671.584491081568	1212.738939647122	575.505818444660	590.837528378915	1206.944991475459	485.717954661848	595.908459880854	1252.199477903008	781.860799757220	388.677987009180	1205.511246036784	655.702339030971	308.428130938002	1315.244517462812	596.559696947865	360.333513480867	1330.571505640291	509.568654348669	350.747998649258	1269.484276397337	440.247317562542	342.624127321262	1130.361604025951	385.639813898456	301.568538678511	1137.165124584610	252.835272800276	347.574485416176	1169.873469948414	399.937870548675	601.737679292003	1090.644088546085	303.338080483940	664.563167110163	1119.393400651709	205.143894512365	599.215955044800	970.672868606854	47.777810251908	573.696645488870	1143.088502947416	97.387794956637	606.272945809492	1055.117334037692	38.983235143908	646.288786681486	1263.166176039482	40.327457209247	632.201869455023	960.671634526252	166.970996232495	395.221768135445	1014.753648319800	131.539196041747	308.111152100133	1119.953499854816	148.176950009723	323.128753662421	1203.468810685516	45.638983801713	280.972127544211	1077.128455728744	1070.799200936045	232.253318630298	1131.163868564310	817.573954737824	203.213882246607	1200.932213373077	1107.960031467458	810.433261759791	1439.187893377353	1027.626464137565	765.144009631173	
54	54.364142857143	961.356162491349	1008.354229947994	538.118454232128	1130.411867220944	1426.505112058201	330.844662424338	1245.195673811195	1364.548900871315	486.168404428390	1176.929832972724	1444.273545285422	664.008634420281	1128.523243604716	1496.209697302616	485.801708828104	1197.600522124518	943.248890381721	639.420840427963	1164.054804873151	961.950644166710	367.360839544604	1225.807020236255	737.520157482488	609.540977717299	1138.415231886625	632.083246091504	671.529011934903	1209.475950304197	575.286603651259	590.372508078620	1203.185696036123	485.591151541740	595.563664183725	1250.510211231147	784.396683960965	388.254528219345	1204.738776866323	657.705919686060	308.222186756944	1315.166563255052	599.734793298721	359.980691921381	1332.087568113926	513.828966974516	350.050057649864	1274.173288077041	443.360018466769	341.662329066617	1137.987396751295	381.443699783852	301.771387417782	1153.156539322105	248.792292023744	346.382673744279	1165.846552449000	400.040692025859	601.662255644034	1086.463213522716	303.716459736513	664.748006317933	1114.658034217850	205.408759766588	599.367003411203	965.365734087053	48.389624141357	573.948088348132	1137.965407269590	97.450718989201	606.432402852652	1049.883477869518	39.239993637009	646.483622828183	1257.857864056214	40.181750083412	632.295735437990	983.018721736928	151.404918307915	395.793967500171	1037.822843622139	120.818452566581	307.286981611094	1141.923082084612	144.069489322493	320.939402218543	1231.292093133243	48.167094826125	275.996298673487	1069.131938305647	1072.582865087091	233.100849769795	1120.065578815107	818.908905796498	203.017525064518	1211.775708334275	1109.321821104487	809.765729198581	1453.466466445012	1046.118081056810	759.835113050023	
55	54.377428571429	960.467788750630	1009.526759779570	539.773525249780	1128.718014654817	1427.238171868590	331.619908634828	1245.271381012595	1364.679825580462	485.368264265872	1179.640283000239	1444.675354634719	664.053395536624	1128.916671363802	1496.770288941759	486.439644129240	1197.379188520381	943.295582416101	638.764068201645	1161.540707417476	962.829513602691	367.035284609832	1223.576074722614	737.236531458724	608.529861116203	1136.056306307924	632.312657079118	671.383576937458	1206.059063258378	575.071581808557	589.774844996667	1199.261186980664	485.493291392677	595.164768566214	1248.437260985950	786.491867657048	387.781305921129	1203.530561768522	659.374079235915	307.934445209657	1314.266365400312	602.321657250708	359.977503691653	1332.758057903583	517.714262877464	349.652891636985	1278.243038784279	446.241607288132	340.875576197937	1145.771886253707	376.758247589007	301.563774538757	1169.463046320404	244.727260253690	344.992066467341	1161.712672714758	400.157442315968	601.557922316377	1082.195387225637	304.098949422571	664.908565028050	1109.877477135689	205.681472798484	599.507370090280	960.045448338310	48.997210531720	574.209123864089	1132.834834767039	97.506609667040	606.578517627060	1044.642523757409	39.493295632787	646.689133402552	1252.540157908773	40.047165656061	632.384390479580	1006.363695939984	135.843431132388	395.456011312491	1062.061872018042	110.145404968093	305.901795055886	1164.573023891943	140.092759731269	318.666452781008	1259.763507533107	51.215887248574	271.555767021953	1061.332114924632	1074.434698781106	234.041399503451	1109.457866851168	820.356147440265	203.034014056647	1222.630153036992	1110.771392214566	808.604953201732	1466.400556397633	1064.553280053431	754.037807092603	
56	54.390714285714	959.606599628858	1010.675043126828	541.223181052913	1127.102412984128	1427.955604933916	332.237768752309	1245.369353697408	1364.752892257480	484.402194643655	1182.334141461275	1444.973324382092	663.897136737286	1129.314001976868	1497.271894044321	486.920884661417	1197.094343449354	943.276664833500	637.894922722982	1159.048465871434	963.628481482521	366.514612352087	1221.211271186960	736.908383955004	607.310138505352	1133.651974317454	632.514354306046	671.158186385336	1202.532421240375	574.831351740851	589.065284308190	1195.209719077399	485.392352886134	594.716881023867	1246.029506921759	788.127448253014	387.312627830291	1202.002923907830	660.708419163020	307.549723938413	1312.664511674688	604.328084389337	360.323268583475	1332.727847313459	521.211602489689	349.568405152545	1281.753911215286	448.894749309783	340.312776287087	1153.768979341146	371.838357931943	300.872189182265	1185.824547768970	240.929740700667	343.477397998374	1157.493706237685	400.251113167944	601.417029629363	1077.857966873004	304.452891230194	665.034906554873	1105.061985881565	205.928006335703	599.623425750802	954.714993455959	49.563147192777	574.475546882406	1127.688264199491	97.550517509193	606.707527970457	1039.389724661987	39.726211464224	646.898888720296	1247.212983047000	39.930390028809	632.468203525743	1030.241999883879	120.941391831355	394.123700773504	1087.090396446696	100.026197706237	303.990703548088	1187.513472589899	136.566893313959	316.462060156662	1288.357744243982	54.898804034792	268.048844588567	1053.816123102246	1076.284961790368	235.081228217875	1099.335049579648	821.825310336352	203.266624292271	1233.460438544129	1112.276853333826	806.987067417649	1478.023521346914	1082.699365969908	747.832700306853	
